# xmcd
#
# Track frame offsets:
#	150
#	20262
#	41205
#
# Disc length: 1245 seconds
# Revision: 0
# Processed by: cddbd v1.5.2PL0 Copyright (c) Steve Scherf et al.
# Submitted via: dBpowerAMP V12.0
#
DISCID=1d04db03
DTITLE=Gary Barlow - So Help Me Girl (Single)
DYEAR=1997
DGENRE=Pop
TTITLE0=So Help Me Girl
TTITLE1=So Help Me Girl (Peter Mokran mix)
TTITLE2=[Interview]
EXTD=
EXTT0=
EXTT1=
EXTT2=
PLAYORDER=
